<svg width="1110" height="177" viewBox="0 0 1110 177" fill="none" xmlns="http://www.w3.org/2000/svg">
<path d="M64.2 176.3C53.3 176.3 43.7 174.9 35.6 172.2C27.5 169.5 20.7 166.4 15.2 163C8.8 159.1 3.4 154.7 -1 149.7L23.1 125.6C26 129 29.5 132 33.5 134.8C36.9 137.1 41 139.1 45.9 141C50.8 142.8 56.5 143.8 62.9 143.8C72.6 143.8 79.6 141.9 84 138.2C88.4 134.5 90.6 129.9 90.6 124.4C90.6 119.6 88.5 115.8 84.3 112.9C80.1 110.1 74.9 107.5 68.6 105.3C62.3 103.1 55.6 100.7 48.3 98.2999C41.1 95.8998 34.3 92.6999 28 88.7999C21.7 84.7999 16.5 79.7999 12.3 73.5999C8.1 67.3999 6 59.3999 6 49.5999C6 42.9999 7.4 36.6999 10.2 30.5999C13 24.5999 17 19.2999 22.3 14.7999C27.5 10.2999 34 6.69985 41.6 4.09985C49.2 1.49985 57.9 0.0998535 67.6 0.0998535C76.9 0.0998535 85.2 1.29986 92.3 3.69986C99.5 6.09986 105.4 8.79985 110 11.5999C115.5 14.9999 120.2 18.7999 124.2 22.9999L100.5 47.1999C97.9 44.4999 95.1 42.0999 92.1 39.9999C89.4 38.1999 86.1 36.5999 82.2 34.9999C78.3 33.4999 74 32.6999 69.2 32.6999C60 32.6999 53.5 34.2999 49.6 37.4999C45.6 40.6999 43.7 44.7999 43.7 49.5999C43.7 54.3999 45.8 58.2999 50 61.0999C54.2 63.8999 59.4 66.4999 65.7 68.6999C72 70.8998 78.7 73.2999 86 75.6999C93.3 78.0999 100 81.2999 106.3 85.2999C112.6 89.1999 117.8 94.2999 122 100.5C126.2 106.7 128.3 114.7 128.3 124.5C128.3 131.4 126.8 138 124 144.3C121.1 150.6 116.9 156.1 111.3 160.8C105.7 165.5 99 169.3 91.1 172.1C83.1 174.9 74.2 176.3 64.2 176.3Z" fill="#54565A"/>
<path d="M238.047 176.3C225.047 176.3 212.847 174 201.747 169.3C190.547 164.6 180.847 158.3 172.647 150.3C164.447 142.3 158.047 133 153.347 122.3C148.647 111.6 146.347 100.2 146.347 88.1C146.347 76 148.647 64.7 153.347 54C158.047 43.3 164.447 34 172.647 26C180.847 18 190.547 11.7 201.747 7C212.947 2.3 225.047 0 238.047 0C249.747 0 260.147 1.8 269.047 5.3C277.947 8.8 285.447 12.7 291.347 16.9C298.247 21.9 304.247 27.5 309.247 33.8L285.147 58C281.647 53.5 277.547 49.5 272.847 45.9C268.847 42.9 263.847 40.1 258.047 37.6C252.247 35.1 245.547 33.9 238.047 33.9C230.447 33.9 223.447 35.3 216.847 38.1C210.247 40.9 204.447 44.8 199.547 49.7C194.647 54.6 190.747 60.4 187.947 67C185.147 73.6 183.747 80.6 183.747 88.2C183.747 95.8 185.147 102.9 187.947 109.5C190.747 116.1 194.647 121.8 199.547 126.7C204.447 131.6 210.247 135.5 216.847 138.3C223.447 141.1 230.547 142.5 238.047 142.5C245.947 142.5 252.847 141.3 258.747 138.8C264.747 136.3 269.747 133.5 273.947 130.5C278.747 127 282.847 122.9 286.247 118.4L310.347 142.5C305.347 148.8 299.347 154.4 292.247 159.4C286.147 163.6 278.547 167.5 269.547 171C260.647 174.6 250.147 176.3 238.047 176.3Z" fill="#54565A"/>
<path d="M336.998 3.69995H373.198V172.7H336.998V3.69995Z" fill="#54565A"/>
<path d="M497.519 176.3C484.519 176.3 472.319 174 461.119 169.3C449.919 164.6 440.219 158.3 432.019 150.3C423.819 142.3 417.419 133 412.719 122.3C408.019 111.6 405.719 100.2 405.719 88.1C405.719 76 408.019 64.7 412.719 54C417.419 43.3 423.819 34 432.019 26C440.219 18 449.919 11.7 461.119 7C472.319 2.3 484.419 0 497.519 0C510.519 0 522.619 2.3 533.819 7C545.019 11.7 554.719 18 562.919 26C571.119 34 577.519 43.3 582.219 54C586.919 64.7 589.219 76.1 589.219 88.1C589.219 100.1 586.919 111.6 582.219 122.3C577.519 133 571.119 142.3 562.919 150.3C554.719 158.3 545.019 164.6 533.819 169.3C522.719 174 510.619 176.3 497.519 176.3ZM497.519 142.5C505.119 142.5 512.119 141.1 518.719 138.3C525.319 135.5 531.019 131.6 535.919 126.7C540.819 121.8 544.719 116 547.519 109.5C550.319 102.9 551.719 95.8 551.719 88.2C551.719 80.6 550.319 73.6 547.519 67C544.719 60.4 540.819 54.6 535.919 49.7C531.019 44.8 525.319 40.9 518.719 38.1C512.119 35.3 505.019 33.9 497.519 33.9C489.919 33.9 482.919 35.3 476.319 38.1C469.719 40.9 463.919 44.8 459.019 49.7C454.119 54.6 450.219 60.4 447.419 67C444.619 73.6 443.219 80.7 443.219 88.2C443.219 95.8 444.619 102.9 447.419 109.5C450.219 116.1 454.119 121.8 459.019 126.7C463.919 131.6 469.719 135.5 476.319 138.3C482.919 141.1 490.019 142.5 497.519 142.5Z" fill="#54565A"/>
<path d="M621.913 3.69995H693.113C701.513 3.69995 709.013 4.89995 715.813 7.29995C722.613 9.69995 728.313 12.9 732.913 17C737.613 21 741.113 25.7999 743.613 31.2999C746.113 36.7999 747.313 42.4999 747.313 48.3999C747.313 55.1999 746.113 60.7 743.713 65.2C741.313 69.6 738.613 73.2 735.713 76C732.313 79.2 728.513 81.7 724.413 83.5C730.213 85.3 735.413 88 740.113 91.7C744.013 94.8999 747.513 99.0999 750.813 104.4C754.113 109.6 755.813 116.4 755.813 124.6C755.813 131.2 754.513 137.4 751.813 143.3C749.113 149.2 745.313 154.3 740.313 158.6C735.313 162.9 729.313 166.4 722.113 169C714.913 171.6 706.913 172.8 697.813 172.8H621.813V3.69995H621.913ZM695.513 141.3C702.713 141.3 708.413 139.4 712.413 135.6C716.413 131.8 718.413 126.9 718.413 120.8C718.413 114.7 716.413 109.7 712.413 105.9C708.413 102.1 702.713 100.2 695.513 100.2H658.113V141.3H695.513ZM690.713 68.8999C696.813 68.8999 701.613 67.2999 704.913 64.0999C708.313 60.8999 710.013 56.9 710.013 52C710.013 47.0999 708.313 43.1999 704.913 39.8999C701.513 36.6999 696.813 35.0999 690.713 35.0999H658.113V68.8999H690.713Z" fill="#0075FF"/>
<path d="M869.294 176.3C856.294 176.3 844.094 174 832.894 169.3C821.694 164.6 811.994 158.3 803.794 150.3C795.594 142.3 789.194 133 784.494 122.3C779.794 111.6 777.494 100.2 777.494 88.1C777.494 76 779.794 64.7 784.494 54C789.194 43.3 795.594 34 803.794 26C811.994 18 821.694 11.7 832.894 7C844.094 2.3 856.194 0 869.294 0C882.294 0 894.394 2.3 905.594 7C916.794 11.7 926.494 18 934.694 26C942.894 34 949.294 43.3 953.994 54C958.694 64.7 960.994 76.1 960.994 88.1C960.994 100.1 958.694 111.6 953.994 122.3C949.294 133 942.894 142.3 934.694 150.3C926.494 158.3 916.794 164.6 905.594 169.3C894.494 174 882.394 176.3 869.294 176.3ZM869.294 142.5C876.894 142.5 883.894 141.1 890.494 138.3C897.094 135.5 902.794 131.6 907.694 126.7C912.594 121.8 916.494 116 919.294 109.5C922.094 102.9 923.494 95.8 923.494 88.2C923.494 80.6 922.094 73.6 919.294 67C916.494 60.4 912.594 54.6 907.694 49.7C902.794 44.8 897.094 40.9 890.494 38.1C883.894 35.3 876.794 33.9 869.294 33.9C861.694 33.9 854.694 35.3 848.094 38.1C841.494 40.9 835.694 44.8 830.794 49.7C825.894 54.6 821.994 60.4 819.194 67C816.394 73.6 814.994 80.7 814.994 88.2C814.994 95.8 816.394 102.9 819.194 109.5C821.994 116.1 825.894 121.8 830.794 126.7C835.694 131.6 841.494 135.5 848.094 138.3C854.694 141.1 861.794 142.5 869.294 142.5Z" fill="#0075FF"/>
<path d="M1024.98 37.5H976.679V3.69995H1109.48V37.5H1061.18V172.7H1024.98V37.5Z" fill="#0075FF"/>
<mask id="mask0_47_105" style="mask-type:luminance" maskUnits="userSpaceOnUse" x="433" y="27" width="128" height="128">
<path d="M560.187 27.5183H433.287V154.418H560.187V27.5183Z" fill="white"/>
</mask>
<g mask="url(#mask0_47_105)">
<path d="M561.187 91.5183C561.187 93.6183 561.087 95.7183 560.887 97.8183C560.687 99.9183 560.387 102.018 559.987 104.018C559.587 106.118 559.087 108.118 558.487 110.118C557.887 112.118 557.187 114.118 556.387 116.018C555.587 117.918 554.687 119.818 553.687 121.718C552.687 123.518 551.587 125.318 550.487 127.118C549.287 128.818 548.087 130.518 546.787 132.118C545.487 133.718 544.087 135.318 542.587 136.818C541.087 138.318 539.587 139.718 537.887 141.018C536.287 142.318 534.587 143.618 532.887 144.718C531.187 145.918 529.387 146.918 527.487 147.918C525.587 148.918 523.787 149.818 521.787 150.618C519.887 151.418 517.887 152.118 515.887 152.718C513.887 153.318 511.887 153.818 509.787 154.218C507.687 154.618 505.687 154.918 503.587 155.118C501.487 155.318 499.387 155.418 497.287 155.418C495.187 155.418 493.087 155.318 490.987 155.118C488.887 154.918 486.787 154.618 484.787 154.218C482.687 153.818 480.687 153.318 478.687 152.718C476.687 152.118 474.687 151.418 472.787 150.618C470.887 149.818 468.987 148.918 467.087 147.918C465.287 146.918 463.487 145.818 461.687 144.718C459.987 143.518 458.287 142.318 456.687 141.018C455.087 139.718 453.487 138.318 451.987 136.818C450.487 135.318 449.087 133.818 447.787 132.118C446.487 130.518 445.187 128.818 444.087 127.118C442.887 125.418 441.887 123.618 440.887 121.718C439.887 119.918 438.987 118.018 438.187 116.018C437.387 114.118 436.687 112.118 436.087 110.118C435.487 108.118 434.987 106.118 434.587 104.018C434.187 101.918 433.887 99.9183 433.687 97.8183C433.487 95.7183 433.387 93.6183 433.387 91.5183C433.387 89.4183 433.487 87.3183 433.687 85.2183C433.887 83.1183 434.187 81.0183 434.587 79.0183C434.987 76.9183 435.487 74.9183 436.087 72.9183C436.687 70.9183 437.387 68.9183 438.187 67.0183C438.987 65.1183 439.887 63.2183 440.887 61.3183C441.887 59.5183 442.987 57.7183 444.087 55.9183C445.287 54.2183 446.487 52.5183 447.787 50.9183C449.087 49.3183 450.487 47.7183 451.987 46.3183C453.487 44.8183 454.987 43.4183 456.687 42.1183C458.287 40.8183 459.987 39.5183 461.687 38.4183C463.387 37.2183 465.187 36.2183 467.087 35.2183C468.887 34.2183 470.787 33.3183 472.787 32.5183C474.687 31.7183 476.687 31.0183 478.687 30.4183C480.687 29.8183 482.687 29.3183 484.787 28.9183C486.887 28.5183 488.887 28.2183 490.987 28.0183C493.087 27.8183 495.187 27.7183 497.287 27.7183C499.387 27.7183 501.487 27.8183 503.587 28.0183C505.687 28.2183 507.787 28.5183 509.787 28.9183C511.887 29.3183 513.887 29.8183 515.887 30.4183C517.887 31.0183 519.887 31.7183 521.787 32.5183C523.687 33.3183 525.587 34.2183 527.487 35.2183C529.287 36.2183 531.087 37.3183 532.887 38.4183C534.587 39.6183 536.287 40.8183 537.887 42.1183C539.487 43.4183 541.087 44.8183 542.587 46.3183C544.087 47.8183 545.487 49.3183 546.787 50.9183C548.087 52.5183 549.387 54.2183 550.487 55.9183C551.687 57.6183 552.687 59.4183 553.687 61.3183C554.687 63.1183 555.587 65.0183 556.387 67.0183C557.187 69.0183 557.887 70.9183 558.487 72.9183C559.087 74.9183 559.587 76.9183 559.987 79.0183C560.387 81.1183 560.687 83.1183 560.887 85.2183C561.087 87.3183 561.187 89.4183 561.187 91.5183Z" fill="#54565A"/>
</g>
</svg>
